# AST/ASF file generated using VICON BodyLanguage
# -----------------------------------------------
:version 1.10
:name VICON
:units
  mass 1.0
  length 0.45
  angle deg
:documentation
   .ast/.asf automatically generated from VICON data using
   VICON BodyBuilder and BodyLanguage model FoxedUp or BRILLIANT.MOD
:root
   order TX TY TZ RX RY RZ
   axis XYZ
   position 0 0 0  
   orientation 0 0 0 
:bonedata
  begin
     id 1 
     name lhipjoint
     direction 0.650112 -0.723553 0.232005 
     length 2.45805 
     axis 0 0 0  XYZ
  end
  begin
     id 2 
     name lfemur
     direction 0.34202 -0.939693 0  
     length 7.00073  
     axis 0 0 20  XYZ
    dof rx ry rz
    limits (-160.0 20.0)
           (-70.0 70.0)
           (-60.0 70.0)
  end
  begin
     id 3 
     name ltibia
     direction 0.34202 -0.939693 0   
     length 7.8748   
     axis 0 0 20   XYZ
    dof rx
    limits (-10.0 170.0)
  end
  begin
     id 4 
     name lfoot
     direction 0.0542825 -0.14914 0.987325   
     length 1.75978   
     axis -90 7.62852e-016 20   XYZ
    dof rx rz
    limits (-45.0 90.0)
           (-70.0 20.0)
  end
  begin
     id 5 
     name ltoes
     direction 1.53509e-011 -4.21906e-011 1   
     length 0.893912   
     axis -90 7.62852e-016 20   XYZ
    dof rx
    limits (-90.0 20.0)
  end
  begin
     id 6 
     name rhipjoint
     direction -0.637897 -0.733345 0.235145   
     length 2.42522  
     axis 0 0 0  XYZ 
  end
  begin
     id 7 
     name rfemur
     direction -0.34202 -0.939693 0   
     length 7.02549   
     axis 0 0 -20   XYZ
    dof rx ry rz
    limits (-160.0 20.0)
           (-70.0 70.0)
           (-70.0 60.0)
  end
  begin
     id 8 
     name rtibia
     direction -0.34202 -0.939693 0   
     length 7.71512   
     axis 0 0 -20   XYZ
    dof rx
    limits (-10.0 170.0)
 end
 begin
     id 9 
     name rfoot
     direction -0.0822618 -0.226012 0.970645   
     length 1.90014  
     axis -90 -7.62852e-016 -20   XYZ
    dof rx rz
    limits (-45.0 90.0)
           (-20.0 70.0)
  end
  begin
     id 10 
     name rtoes
     direction -1.53542e-011 -4.21872e-011 1   
     length 0.957341   
     axis -90 -7.62852e-016 -20   XYZ
    dof rx
    limits (-90.0 20.0)
  end
  begin
     id 11 
     name lowerback
     direction -0.0022947 0.999774 -0.0211557   
     length 1.89909   
     axis 0 0 0   XYZ
    dof rx ry rz
    limits (-20.0 45.0)
           (-30.0 30.0)
           (-30.0 30.0)
  end
  begin
     id 12 
     name upperback
     direction 0.0107737 0.998635 0.0511027   
     length 1.8853   
     axis 0 0 0   XYZ
    dof rx ry rz
    limits (-20.0 45.0)
           (-30.0 30.0)
           (-30.0 30.0)
  end
  begin
     id 13 
     name thorax
     direction 0.011824 0.998136 0.0598754   
     length 1.88911   
     axis 0 0 0   XYZ
    dof rx ry rz
    limits (-20.0 45.0)
           (-30.0 30.0)
           (-30.0 30.0)
  end
  begin
     id 14 
     name lowerneck
     direction -0.0685355 0.990319 0.120714   
     length 1.91222   
     axis 0 0 0   XYZ
    dof rx ry rz
    limits (-20.0 45.0)
           (-30.0 30.0)
           (-30.0 30.0)
  end
  begin
     id 15 
     name upperneck
     direction 0.0886204 0.955665 -0.280805   
     length 1.92526   
     axis 0 0 0   XYZ
    dof rx ry rz
    limits (-20.0 45.0)
           (-30.0 30.0)
           (-30.0 30.0)
  end
  begin
     id 16
     name head
     direction 0.0233423 0.993502 -0.111393  
     length 1.96056  
     axis 0 0 0   XYZ
    dof rx ry rz
    limits (-20.0 45.0)
           (-30.0 30.0)
           (-30.0 30.0)
  end
  begin
     id 17 
     name lclavicle
     direction 0.941873 0.32922 0.0670041  
     length 3.31705  
     axis 0 0 0   XYZ
    dof ry rz
    limits (-20.0 10.0)
           (0.0 20.0)
  end
  begin
     id 18 
     name lhumerus
     direction 1 -4.4898e-011 3.38707e-028   
     length 5.29277   
     axis 180 -30 -90   XYZ
    dof rx ry rz
    limits (-60.0 90.0)
           (-90.0 90.0)
           (-90.0 90.0)
  end
  begin
     id 19
     name lradius
     direction 1 -4.48952e-011 1.63213e-028   
     length 2.85226   
     axis 180 -30 -90   XYZ
    dof rx
    limits (-10.0 170.0)
  end
  begin
     id 20
     name lwrist
     direction 1 -4.49001e-011 1.27856e-027   
     length 1.42613   
     axis -1.61767e-015 90 90   XYZ
    dof ry
    limits (-180.0 0.0)
 end
  begin
     id 21 
     name lhand
     direction 1 -4.48976e-011 2.55931e-027   
     length 0.602097   
     axis -1.63363e-015 90 90   XYZ
    dof rx rz
    limits (-90.0 90.0)
           (-45.0 45.0)
  end
  begin
     id 22 
     name lfingers
     direction 1 -4.48986e-011 5.11684e-027   
     length 0.485426   
     axis -3.26723e-015 90 90   XYZ
    dof rx
    limits (0.0 90.0)
  end
  begin
     id 23
     name lthumb
     direction 0.707107 -6.34915e-011 0.707107   
     length 0.696978   
     axis -90 45 -2.25915e-014   XYZ
    dof rx rz
    limits (-45.0 45.0)
           (-45.0 45.0)
  end
  begin
     id 24 
     name rclavicle
     direction -0.939974 0.327078 0.0973096   
     length 3.10337  
     axis 0 0 0   XYZ 
    dof ry rz
    limits (-10.0 20.0)
           (-20.0 0.0)
  end
  begin
     id 25 
     name rhumerus
     direction -1 -4.48975e-011 1.83745e-027  
     length 5.13304   
     axis 180 30 90   XYZ
    dof rx ry rz
    limits (-90.0 60.0)
           (-90.0 90.0)
           (-90.0 90.0)
  end
  begin
     id 26 
     name rradius
     direction -1 -4.48977e-011 7.1775e-029   
     length 2.74305   
     axis 180 30 90   XYZ
    dof rx
    limits (-10.0 170.0)
  end
  begin
     id 27 
     name rwrist
     direction -1 -4.48977e-011 1.27963e-027   
     length 1.37152   
     axis -1.61767e-015 -90 -90   XYZ
    dof ry
    limits (-180.0 0.0)
  end
  begin
     id 28
     name rhand
     direction -1 -4.4888e-011 2.56782e-027   
     length 0.767976   
     axis -1.63363e-015 -90 -90   XYZ
    dof rx rz
    limits (-90.0 90.0)
           (-45.0 45.0)
  end
  begin
     id 29
     name rfingers
     direction -1 -4.48947e-011 5.12384e-027   
     length 0.619162   
     axis -3.26723e-015 -90 -90   XYZ
    dof rx
    limits (0.0 90.0)
  end
  begin
     id 30
     name rthumb
     direction -0.707107 -6.34857e-011 0.707107   
     length 0.888997   
     axis -90 -45 2.25915e-014   XYZ
    dof rx rz
    limits (-45.0 45.0)
           (-45.0 45.0)
  end
:hierarchy
  begin
    root lhipjoint rhipjoint lowerback
    lhipjoint lfemur
    lfemur ltibia
    ltibia lfoot
    lfoot ltoes
    rhipjoint rfemur
    rfemur rtibia
    rtibia rfoot
    rfoot rtoes
    lowerback upperback
    upperback thorax
    thorax lowerneck lclavicle rclavicle
    lowerneck upperneck
    upperneck head
    lclavicle lhumerus
    lhumerus lradius
    lradius lwrist
    lwrist lhand lthumb
    lhand lfingers
    rclavicle rhumerus
    rhumerus rradius
    rradius rwrist
    rwrist rhand rthumb
    rhand rfingers
  end

#!OML:ASF F:\VICON\USERDATA\INSTALL\rory3\rory3.ASF
:FULLY-SPECIFIED
:DEGREES
1233
root 0.568028 16.4062 0.704565 -3.99073 17.8952 -2.3781
lowerback -5.7429 -2.63187 -3.89039
upperback -5.34599 -3.32115 0.792791
thorax -2.04031 -1.51983 2.85887
lowerneck -12.9256 -11.4831 -16.938
upperneck 30.9802 -16.5407 11.5221
head 15.58 -7.78342 4.57452
rclavicle -6.31141e-015 -1.13307e-014
rhumerus 51.0052 -0.0367295 -45.4929
rradius 71.6254
rwrist 33.945
rhand 18.1408 20.2094
rfingers 7.12502
rthumb 42.7994 -4.10707
lclavicle -6.31141e-015 -1.13307e-014
lhumerus 25.0422 -25.8628 75.0532
lradius 66.2012
lwrist -7.29819
lhand 40.3893 31.6388
lfingers 7.12502
lthumb 62.7171 42.2103
rfemur -1.33017 -7.52322 19.0466
rtibia 36.3149
rfoot -31.0385 -12.7528
rtoes -19.215
lfemur -12.2734 -13.4836 -17.0064
ltibia 44.9028
lfoot -26.0575 -11.4416
ltoes -4.71224
1234
root 0.56275 16.4029 0.714229 -3.91106 18.486 -2.21298
lowerback -5.83877 -2.66535 -3.94125
upperback -5.34062 -3.35945 0.682387
thorax -1.98236 -1.54018 2.76678
lowerneck -13.1205 -11.5372 -16.8904
upperneck 31.0387 -16.6652 11.665
head 15.6906 -7.80243 4.59372
rclavicle -9.72057e-014 -2.8625e-014
rhumerus 52.2247 -0.469264 -45.4824
rradius 71.6545
rwrist 33.8866
rhand 18.3085 20.0767
rfingers 7.12502
rthumb 42.9562 -4.18471
lclavicle -9.72057e-014 -2.8625e-014
lhumerus 23.8326 -26.8626 75.5599
lradius 65.6451
lwrist -7.27208
lhand 40.5246 31.6602
lfingers 7.12502
lthumb 62.8286 42.0826
rfemur -1.30706 -7.8589 18.9151
rtibia 36.3918
rfoot -31.0251 -13.1574
rtoes -19.7481
lfemur -12.4101 -13.7764 -17.1374
ltibia 44.9047
lfoot -25.9778 -11.6998
ltoes -4.7261
1235
root 0.5545 16.3986 0.718517 -3.85048 19.1168 -2.17063
lowerback -5.87945 -2.77082 -3.94747
upperback -5.29498 -3.49604 0.691703
thorax -1.90098 -1.61041 2.76955
lowerneck -13.6243 -11.563 -16.7811
upperneck 31.198 -16.6662 11.6513
head 15.8696 -7.76489 4.55175
rclavicle 1.35174e-014 -1.17283e-014
rhumerus 53.6241 -0.852162 -45.4545
rradius 71.6478
rwrist 33.8376
rhand 18.2199 20.0026
rfingers 7.12502
rthumb 42.8733 -4.28797
lclavicle 1.35174e-014 -1.17283e-014
lhumerus 22.7137 -27.5837 76.1074
lradius 65.1014
lwrist -7.42516
lhand 40.8087 31.6082
lfingers 7.12502
lthumb 63.0621 41.7137
rfemur -1.32977 -8.19938 18.9392
rtibia 36.4677
rfoot -31.0437 -13.5073
rtoes -19.8076
lfemur -12.6294 -14.1354 -17.1069
ltibia 44.9259
lfoot -25.9206 -11.9384
ltoes -5.02647
1236
root 0.547318 16.3963 0.726877 -3.79495 19.664 -2.13649
lowerback -5.94621 -2.80162 -3.90219
upperback -5.37804 -3.53591 0.640882
thorax -1.95285 -1.62939 2.68914
lowerneck -13.5155 -11.5278 -16.6293
upperneck 31.1523 -16.6762 11.6837
head 15.8097 -7.75167 4.54431
rclavicle -2.85753e-014 -2.44505e-014
rhumerus 54.6811 -1.13758 -45.5251
rradius 71.5434
rwrist 33.9988
rhand 18.1084 20.1032
rfingers 7.12502
rthumb 42.769 -4.22384
lclavicle -2.85753e-014 -2.44505e-014
lhumerus 21.3929 -28.5642 76.7416
lradius 64.5104
lwrist -7.68946
lhand 41.1405 31.4336
lfingers 7.12502
lthumb 63.3336 41.1616
rfemur -1.30949 -8.48239 18.9675
rtibia 36.5099
rfoot -31.086 -13.7855
rtoes -19.8047
lfemur -12.8203 -14.4317 -17.0736
ltibia 44.978
lfoot -25.935 -12.0967
ltoes -5.54969
1237
root 0.541768 16.3957 0.737801 -3.77464 20.1181 -2.04938
lowerback -6.03674 -2.82167 -3.8967
upperback -5.50683 -3.55937 0.584607
thorax -2.03883 -1.63754 2.62637
lowerneck -13.105 -11.4442 -16.7559
upperneck 31.0623 -16.6688 11.9604
head 15.7213 -7.7506 4.70542
rclavicle -2.62396e-014 7.55382e-015
rhumerus 55.5681 -1.23315 -45.6051
rradius 71.6175
rwrist 34.0511
rhand 18.3372 20.0579
rfingers 7.12502
rthumb 42.983 -4.19405
lclavicle -2.62396e-014 7.55382e-015
lhumerus 19.8956 -29.6174 77.3859
lradius 64.0273
lwrist -7.77275
lhand 41.0919 31.5114
lfingers 7.12502
lthumb 63.294 41.2951
rfemur -1.18609 -8.72155 18.8982
rtibia 36.5244
rfoot -31.2381 -13.7561
rtoes -19.247
lfemur -12.8905 -14.6922 -17.1316
ltibia 45.0047
lfoot -25.8875 -12.2763
ltoes -5.54846
1238
root 0.537521 16.3915 0.746799 -3.87196 20.5897 -2.14944
lowerback -6.02255 -2.83187 -3.65611
upperback -5.58827 -3.58333 0.527517
thorax -2.1462 -1.65389 2.43567
lowerneck -12.9634 -11.4195 -16.929
upperneck 31.1557 -16.7468 12.2944
head 15.8156 -7.77085 4.87375
rclavicle 3.49861e-014 2.08724e-014
rhumerus 56.4599 -1.41552 -45.7567
rradius 71.6807
rwrist 34.0317
rhand 18.5627 20.0485
rfingers 7.12502
rthumb 43.1938 -4.12858
lclavicle 3.49861e-014 2.08724e-014
lhumerus 18.5284 -30.5395 78.0843
lradius 63.4982
lwrist -7.89884
lhand 40.9883 31.4685
lfingers 7.12502
lthumb 63.2092 41.3707
rfemur -0.983313 -9.0106 19.0064
rtibia 36.4998
rfoot -31.3577 -13.8149
rtoes -18.9709
lfemur -12.9059 -14.9296 -17.0127
ltibia 45.0133
lfoot -25.7144 -12.574
ltoes -5.01184
1239
root 0.532056 16.3916 0.759788 -3.92217 21.0276 -2.15444
lowerback -5.99545 -2.82246 -3.47546
upperback -5.63048 -3.5799 0.399952
thorax -2.22308 -1.65756 2.20673
lowerneck -12.9905 -11.4294 -16.8856
upperneck 31.2202 -16.8595 12.5036
head 15.8999 -7.78651 4.93571
rclavicle -1.53064e-014 -1.41137e-014
rhumerus 57.329 -1.69196 -45.9747
rradius 71.6549
rwrist 34.0442
rhand 18.3668 20.1109
rfingers 7.12502
rthumb 43.0107 -4.13126
lclavicle -1.53064e-014 -1.41137e-014
lhumerus 17.2832 -31.3708 78.7172
lradius 62.964
lwrist -8.05133
lhand 40.8297 31.278
lfingers 7.12502
lthumb 63.0793 41.3598
rfemur -0.885023 -9.21622 19.0652
rtibia 36.4653
rfoot -31.2947 -14.2355
rtoes -19.2168
lfemur -12.8851 -15.1473 -16.9806
ltibia 44.9766
lfoot -25.6027 -12.7961
ltoes -4.53111
1240
root 0.526353 16.3953 0.774321 -3.92981 21.4217 -2.11059
lowerback -6.01355 -2.85555 -3.43683
upperback -5.64578 -3.62414 0.384228
thorax -2.22932 -1.68053 2.16648
lowerneck -13.1607 -11.446 -16.8743
upperneck 31.3418 -16.8799 12.5084
head 16.0033 -7.78291 4.92874
rclavicle -4.67144e-015 -1.39149e-015
rhumerus 58.351 -1.84682 -46.023
rradius 71.6556
rwrist 34.0679
rhand 18.1362 20.0214
rfingers 7.12502
rthumb 42.795 -4.29657
lclavicle -4.67144e-015 -1.39149e-015
lhumerus 16.0204 -31.8715 79.51
lradius 62.4912
lwrist -8.22814
lhand 40.6958 31.2447
lfingers 7.12502
lthumb 62.9694 41.4769
rfemur -0.84226 -9.40994 19.0917
rtibia 36.4304
rfoot -31.3174 -14.6882
rtoes -19.4811
lfemur -12.8673 -15.3478 -16.9927
ltibia 44.9215
lfoot -25.5799 -12.9739
ltoes -4.59812
1241
root 0.519918 16.3968 0.786466 -3.94255 21.8311 -2.06173
lowerback -6.07532 -2.87497 -3.4686
upperback -5.63253 -3.64515 0.383221
thorax -2.17826 -1.69085 2.17844
lowerneck -13.2111 -11.4734 -16.9033
upperneck 31.3544 -16.9281 12.5673
head 16.0434 -7.7955 4.94692
rclavicle 1.88845e-015 -4.37326e-015
rhumerus 59.2402 -2.03915 -46.0668
rradius 71.8039
rwrist 34.0507
rhand 18.1392 19.9656
rfingers 7.12502
rthumb 42.7978 -4.35144
lclavicle 1.88845e-015 -4.37326e-015
lhumerus 14.8457 -32.373 80.3127
lradius 62.0283
lwrist -8.30578
lhand 40.6846 31.1075
lfingers 7.12502
lthumb 62.9602 41.3521
rfemur -0.736748 -9.59442 19.1009
rtibia 36.411
rfoot -31.4475 -14.9039
rtoes -19.244
lfemur -12.8653 -15.5358 -17.0069
ltibia 44.8668
lfoot -25.5942 -13.1315
ltoes -5.09661
